<svg width="184" height="104" viewBox="0 0 184 104" fill="none" xmlns="http://www.w3.org/2000/svg">
<path d="M55.9611 11.3788C64.4315 -0.690871 81.1045 -3.62415 93.2015 4.8271C105.298 13.2783 108.238 29.9138 99.7679 41.9834L48.6448 114.83C40.1745 126.9 23.5014 129.833 11.4045 121.382C-0.692432 112.931 -3.63235 96.2951 4.83801 84.2254L55.9611 11.3788Z" fill="#EC4E4F" class="fill-primary"/>
<path d="M131.626 12.1699C140.097 0.100278 156.77 -2.833 168.867 5.61824C180.964 14.0695 183.904 30.705 175.433 42.7746L124.31 115.621C115.84 127.691 99.1666 130.624 87.0697 122.173C74.9728 113.722 72.0329 97.0862 80.5032 85.0166L131.626 12.1699Z" fill="#EC4E4F" class="fill-primary"/>
<path d="M178.261 124.501C193.028 124.501 205 112.557 205 97.8223C205 83.088 193.028 71.1435 178.261 71.1435C163.493 71.1435 151.522 83.088 151.522 97.8223C151.522 112.557 163.493 124.501 178.261 124.501Z" fill="#EC4E4F" class="fill-primary"/>
</svg>
