<svg width="195" height="121" viewBox="0 0 195 121" fill="none" xmlns="http://www.w3.org/2000/svg">
<path d="M53.2313 10.8412C61.2885 -0.658231 77.1482 -3.45293 88.6551 4.59904C100.162 12.651 102.958 28.5006 94.9012 40L46.2719 109.405C38.2148 120.904 22.355 123.699 10.8482 115.647C-0.658655 107.595 -3.45516 91.7457 4.60201 80.2463L53.2313 10.8412Z" fill="#EC4E4F" class="fill-primary"/>
<path d="M125.206 11.595C133.263 0.0955403 149.122 -2.69916 160.629 5.35282C172.136 13.4048 174.933 29.2543 166.875 40.7537L118.246 110.159C110.189 121.658 94.3292 124.453 82.8224 116.401C71.3156 108.349 68.5191 92.4995 76.5762 81L125.206 11.595Z" fill="#EC4E4F" class="fill-primary"/>
<path d="M169.565 118.619C183.612 118.619 195 107.239 195 93.2008C195 79.1626 183.612 67.7824 169.565 67.7824C155.518 67.7824 144.13 79.1626 144.13 93.2008C144.13 107.239 155.518 118.619 169.565 118.619Z" fill="#EC4E4F" class="fill-primary"/>
</svg>
