<svg width="50" height="35" viewBox="0 0 50 35" fill="none" xmlns="http://www.w3.org/2000/svg">
<path d="M0.079689 17.107C0.131737 16.9793 0.208885 16.8661 0.306732 16.7714L16.9711 0.301133C17.3774 -0.100378 18.0378 -0.100378 18.4441 0.301133C18.8503 0.702645 18.8503 1.35539 18.4441 1.7569L3.5567 16.4707H48.9583C49.5333 16.4707 50 16.9319 50 17.5002C50 18.0685 49.5333 18.5297 48.9583 18.5297H3.5567L18.4441 33.2436C18.8503 33.6451 18.8503 34.2978 18.4441 34.6993C18.2399 34.9012 17.9733 35 17.7066 35C17.4399 35 17.1733 34.8991 16.9691 34.6993L0.304684 18.2292C0.210934 18.1345 0.133884 18.0192 0.079689 17.8936C-0.0265617 17.6423 -0.0265617 17.3581 0.079689 17.107Z" fill="#2E2E2E"/>
</svg>
