<svg width="50" height="35" viewBox="0 0 50 35" fill="none" xmlns="http://www.w3.org/2000/svg">
<path d="M49.9203 17.107C49.8683 16.9793 49.7911 16.8661 49.6933 16.7714L33.0289 0.301133C32.6226 -0.100378 31.9622 -0.100378 31.5559 0.301133C31.1497 0.702645 31.1497 1.35539 31.5559 1.7569L46.4433 16.4707H1.04169C0.466695 16.4707 0 16.9319 0 17.5002C0 18.0685 0.466695 18.5297 1.04169 18.5297H46.4433L31.5559 33.2436C31.1497 33.6451 31.1497 34.2978 31.5559 34.6993C31.7601 34.9012 32.0267 35 32.2934 35C32.5601 35 32.8267 34.8991 33.0309 34.6993L49.6953 18.2292C49.7891 18.1345 49.8661 18.0192 49.9203 17.8936C50.0266 17.6423 50.0266 17.3581 49.9203 17.107Z" fill="#2E2E2E"/>
</svg>
